# xmcd
#
# Track frame offsets:
#	150
#	22245
#	42525
#	70865
#	93425
#	115207
#	137950
#	149285
#	173462
#	192522
#	208065
#	228015
#
# Disc length: 3394 seconds
#
# Revision: 4
# Processed by: cddbd v1.5.2PL0 Copyright (c) Steve Scherf et al.
# Submitted via: audiograbber 1.83.01
#
DISCID=af0d400c
DTITLE=Junior Wells - Everybody's Gettin' Some
DYEAR=1995
DGENRE=Blues
TTITLE0=Sweet Sixteen
TTITLE1=Everybody's Gettin' Them Some
TTITLE2=I Can't Stand No Signifyin'
TTITLE3=Get Down
TTITLE4=Keep On Steppin'
TTITLE5=Shaky Ground
TTITLE6=You're Tough Enough
TTITLE7=Use Me
TTITLE8=Trying To Get Over You
TTITLE9=Last Hand Of The Night
TTITLE10=Don't You Lie To Me
TTITLE11=That's What Love Will Make You Do
EXTD=
EXTT0=
EXTT1=
EXTT2=
EXTT3=
EXTT4=
EXTT5=
EXTT6=
EXTT7=
EXTT8=
EXTT9=
EXTT10=
EXTT11=
PLAYORDER=
